<svg width="250" height="57" viewBox="0 0 250 57" fill="none" xmlns="http://www.w3.org/2000/svg">
<g filter="url(#filter0_d_10964_8537)">
<path d="M19.0726 13.4124C22.1361 13.4124 24.7878 13.9229 27.0278 14.9441C29.3007 15.9653 31.0465 17.4146 32.2653 19.2923C33.4841 21.1699 34.0935 23.3934 34.0935 25.9627C34.0935 28.4992 33.4841 30.7227 32.2653 32.6332C31.0465 34.5108 29.3007 35.9602 27.0278 36.9814C24.7878 37.9696 22.1361 38.4637 19.0726 38.4637H12.1057V48H4.10111V13.4124H19.0726ZM18.6279 31.9415C21.0326 31.9415 22.8608 31.4309 24.1125 30.4097C25.3643 29.3556 25.9901 27.8733 25.9901 25.9627C25.9901 24.0192 25.3643 22.5369 24.1125 21.5158C22.8608 20.4617 21.0326 19.9346 18.6279 19.9346H12.1057V31.9415H18.6279ZM49.2835 48.3953C46.2859 48.3953 43.9471 47.6047 42.2672 46.0236C40.5872 44.4095 39.7472 42.1366 39.7472 39.2049V11.3371H47.4553V38.7602C47.4553 39.8801 47.7353 40.7531 48.2953 41.3789C48.8882 41.9719 49.7117 42.2683 50.7658 42.2683C51.1611 42.2683 51.5564 42.2189 51.9517 42.1201C52.3799 42.0213 52.7093 41.906 52.9399 41.7742L53.2858 47.7529C52.0011 48.1812 50.667 48.3953 49.2835 48.3953ZM83.5658 21.4169V48H76.2036V44.9365C74.293 47.2424 71.526 48.3953 67.9026 48.3953C65.3991 48.3953 63.1262 47.8353 61.0838 46.7153C59.0745 45.5953 57.4933 43.9977 56.3404 41.9225C55.1875 39.8472 54.611 37.4425 54.611 34.7085C54.611 31.9744 55.1875 29.5697 56.3404 27.4945C57.4933 25.4192 59.0745 23.8216 61.0838 22.7016C63.1262 21.5816 65.3991 21.0216 67.9026 21.0216C71.2954 21.0216 73.9472 22.0922 75.8577 24.2334V21.4169H83.5658ZM69.2366 42.0707C71.1801 42.0707 72.7942 41.4119 74.0789 40.0943C75.3636 38.7437 76.0059 36.9484 76.0059 34.7085C76.0059 32.4685 75.3636 30.6897 74.0789 29.3721C72.7942 28.0215 71.1801 27.3462 69.2366 27.3462C67.2602 27.3462 65.6297 28.0215 64.345 29.3721C63.0603 30.6897 62.4179 32.4685 62.4179 34.7085C62.4179 36.9484 63.0603 38.7437 64.345 40.0943C65.6297 41.4119 67.2602 42.0707 69.2366 42.0707ZM106.86 21.0216C110.154 21.0216 112.805 22.0099 114.815 23.9863C116.857 25.9627 117.878 28.8944 117.878 32.7814V48H110.17V33.9673C110.17 31.8591 109.709 30.2944 108.787 29.2733C107.864 28.2192 106.53 27.6921 104.784 27.6921C102.841 27.6921 101.293 28.3015 100.14 29.5203C98.9868 30.7062 98.4103 32.485 98.4103 34.8567V48H90.7022V21.4169H98.0644V24.5298C99.0856 23.4098 100.354 22.5534 101.869 21.9605C103.384 21.3346 105.048 21.0216 106.86 21.0216ZM140.578 21.0216C143.048 21.0216 145.288 21.5981 147.298 22.751C149.34 23.871 150.938 25.4686 152.091 27.5439C153.244 29.5862 153.82 31.9744 153.82 34.7085C153.82 37.4425 153.244 39.8472 152.091 41.9225C150.938 43.9648 149.34 45.5624 147.298 46.7153C145.288 47.8353 143.048 48.3953 140.578 48.3953C136.921 48.3953 134.138 47.2424 132.227 44.9365V48H124.865V11.3371H132.573V24.2334C134.517 22.0922 137.185 21.0216 140.578 21.0216ZM139.244 42.0707C141.22 42.0707 142.834 41.4119 144.086 40.0943C145.371 38.7437 146.013 36.9484 146.013 34.7085C146.013 32.4685 145.371 30.6897 144.086 29.3721C142.834 28.0215 141.22 27.3462 139.244 27.3462C137.267 27.3462 135.637 28.0215 134.352 29.3721C133.1 30.6897 132.474 32.4685 132.474 34.7085C132.474 36.9484 133.1 38.7437 134.352 40.0943C135.637 41.4119 137.267 42.0707 139.244 42.0707ZM171.629 48.3953C168.829 48.3953 166.309 47.8188 164.069 46.6659C161.862 45.48 160.133 43.8495 158.881 41.7742C157.629 39.699 157.004 37.3437 157.004 34.7085C157.004 32.0732 157.629 29.718 158.881 27.6427C160.133 25.5674 161.862 23.9534 164.069 22.8004C166.309 21.6146 168.829 21.0216 171.629 21.0216C174.429 21.0216 176.933 21.6146 179.14 22.8004C181.347 23.9534 183.076 25.5674 184.328 27.6427C185.58 29.718 186.205 32.0732 186.205 34.7085C186.205 37.3437 185.58 39.699 184.328 41.7742C183.076 43.8495 181.347 45.48 179.14 46.6659C176.933 47.8188 174.429 48.3953 171.629 48.3953ZM171.629 42.0707C173.606 42.0707 175.22 41.4119 176.471 40.0943C177.756 38.7437 178.398 36.9484 178.398 34.7085C178.398 32.4685 177.756 30.6897 176.471 29.3721C175.22 28.0215 173.606 27.3462 171.629 27.3462C169.653 27.3462 168.022 28.0215 166.737 29.3721C165.453 30.6897 164.81 32.4685 164.81 34.7085C164.81 36.9484 165.453 38.7437 166.737 40.0943C168.022 41.4119 169.653 42.0707 171.629 42.0707ZM233.406 21.4169V36.092C233.406 40.0119 232.336 43.0424 230.195 45.1836C228.053 47.3247 225.006 48.3953 221.054 48.3953C219.143 48.3953 217.447 48.0988 215.964 47.5059C214.515 46.913 213.296 45.9577 212.308 44.6401C211.32 45.9577 210.101 46.913 208.651 47.5059C207.202 48.0988 205.489 48.3953 203.513 48.3953C199.527 48.3953 196.48 47.3247 194.372 45.1836C192.264 43.0424 191.209 40.0119 191.209 36.092V21.4169H198.918V35.499C198.918 37.7061 199.296 39.3366 200.054 40.3907C200.812 41.4119 201.997 41.9225 203.612 41.9225C205.259 41.9225 206.477 41.3954 207.268 40.3413C208.059 39.2872 208.454 37.6731 208.454 35.499V21.4169H216.162V35.499C216.162 37.6731 216.557 39.2872 217.348 40.3413C218.138 41.3954 219.357 41.9225 221.004 41.9225C222.618 41.9225 223.804 41.4119 224.562 40.3907C225.319 39.3366 225.698 37.7061 225.698 35.499V21.4169H233.406Z" fill="#090000"/>
</g>
<rect x="11" y="19" width="16" height="14" fill="black"/>
<path d="M11 20.25H14.75V30.75H11C10.0335 30.75 9.25 29.9665 9.25 29V22C9.25 21.0335 10.0335 20.25 11 20.25Z" fill="#F96391" stroke="white" stroke-width="0.5"/>
<path d="M22.25 20.25H26C26.9665 20.25 27.75 21.0335 27.75 22V29C27.75 29.9665 26.9665 30.75 26 30.75H22.25V20.25Z" fill="#00A699" stroke="white" stroke-width="0.5"/>
<rect x="16.25" y="20.25" width="4.5" height="10.5" fill="#FFE76B" stroke="white" stroke-width="0.5"/>
<defs>
<filter id="filter0_d_10964_8537" x="1.20004" y="11.3372" width="235.107" height="42.8603" filterUnits="userSpaceOnUse" color-interpolation-filters="sRGB">
<feFlood flood-opacity="0" result="BackgroundImageFix"/>
<feColorMatrix in="SourceAlpha" type="matrix" values="0 0 0 0 0 0 0 0 0 0 0 0 0 0 0 0 0 0 127 0" result="hardAlpha"/>
<feOffset dy="2.9011"/>
<feGaussianBlur stdDeviation="1.45055"/>
<feComposite in2="hardAlpha" operator="out"/>
<feColorMatrix type="matrix" values="0 0 0 0 0 0 0 0 0 0 0 0 0 0 0 0 0 0 0.25 0"/>
<feBlend mode="normal" in2="BackgroundImageFix" result="effect1_dropShadow_10964_8537"/>
<feBlend mode="normal" in="SourceGraphic" in2="effect1_dropShadow_10964_8537" result="shape"/>
</filter>
</defs>
</svg>
