<svg width="250" height="57" viewBox="0 0 250 57" fill="none" xmlns="http://www.w3.org/2000/svg">
<g filter="url(#filter0_d_10964_8537)">
<path d="M4.10111 48V13.4124H19.0726C22.169 13.4124 24.8372 13.9229 27.0772 14.9441C29.3171 15.9323 31.0465 17.3652 32.2653 19.2429C33.4841 21.1205 34.0935 23.3604 34.0935 25.9627C34.0935 28.5321 33.4841 30.7556 32.2653 32.6332C31.0465 34.5108 29.3171 35.9602 27.0772 36.9814C24.8372 37.9696 22.169 38.4637 19.0726 38.4637H8.54809L12.1057 34.8567V48H4.10111ZM12.1057 35.7461L8.54809 31.9415H18.6279C21.0985 31.9415 22.9431 31.4144 24.1619 30.3603C25.3807 29.3062 25.9901 27.8403 25.9901 25.9627C25.9901 24.0522 25.3807 22.5699 24.1619 21.5158C22.9431 20.4617 21.0985 19.9346 18.6279 19.9346H8.54809L12.1057 16.13V35.7461ZM39.7472 48V11.3371H47.4553V48H39.7472ZM70.9147 48V42.8119L70.4206 41.6754V32.3862C70.4206 30.7391 69.91 29.4544 68.8888 28.5321C67.9006 27.6098 66.3689 27.1486 64.2936 27.1486C62.8772 27.1486 61.4772 27.3792 60.0937 27.8403C58.7431 28.2686 57.5902 28.8615 56.6349 29.6191L53.8679 24.2334C55.3173 23.2122 57.0632 22.4216 59.1055 21.8616C61.1478 21.3016 63.2231 21.0216 65.3313 21.0216C69.383 21.0216 72.5288 21.9769 74.7687 23.8875C77.0087 25.798 78.1287 28.7792 78.1287 32.8309V48H70.9147ZM62.8113 48.3953C60.736 48.3953 58.9572 48.0494 57.4749 47.3577C55.9926 46.633 54.8561 45.6612 54.0656 44.4424C53.275 43.2236 52.8797 41.8566 52.8797 40.3413C52.8797 38.7602 53.2585 37.3767 54.0162 36.1908C54.8067 35.0049 56.042 34.0826 57.722 33.4238C59.4019 32.732 61.5925 32.3862 64.2936 32.3862H71.3594V36.8825H65.1336C63.3219 36.8825 62.0701 37.179 61.3784 37.7719C60.7196 38.3649 60.3902 39.106 60.3902 39.9954C60.3902 40.9837 60.769 41.7742 61.5266 42.3672C62.3172 42.9271 63.3878 43.2071 64.7383 43.2071C66.023 43.2071 67.1759 42.9107 68.1971 42.3177C69.2182 41.6919 69.9594 40.786 70.4206 39.6001L71.6064 43.1577C71.0465 44.8706 70.0253 46.1718 68.543 47.0612C67.0606 47.9506 65.1501 48.3953 62.8113 48.3953ZM101.262 21.0216C103.37 21.0216 105.248 21.4499 106.895 22.3063C108.575 23.1298 109.893 24.4145 110.848 26.1604C111.803 27.8733 112.281 30.0803 112.281 32.7814V48H104.573V33.9673C104.573 31.8262 104.095 30.245 103.14 29.2239C102.218 28.2027 100.9 27.6921 99.187 27.6921C97.9682 27.6921 96.8647 27.9556 95.8765 28.4827C94.9212 28.9768 94.1635 29.7509 93.6036 30.805C93.0765 31.8591 92.813 33.2097 92.813 34.8567V48H85.1049V21.4169H92.4671V28.7792L91.0836 26.5557C92.0389 24.7769 93.4059 23.4098 95.1847 22.4546C96.9635 21.4993 98.9893 21.0216 101.262 21.0216ZM134.981 48.3953C132.642 48.3953 130.632 47.9012 128.952 46.913C127.272 45.9247 125.988 44.4259 125.098 42.4166C124.209 40.3742 123.764 37.8049 123.764 34.7085C123.764 31.5791 124.225 29.0097 125.148 27.0004C126.103 24.991 127.421 23.4922 129.101 22.504C130.781 21.5158 132.741 21.0216 134.981 21.0216C137.484 21.0216 139.724 21.5816 141.7 22.7016C143.71 23.8216 145.291 25.4027 146.444 27.4451C147.63 29.4874 148.223 31.9085 148.223 34.7085C148.223 37.4755 147.63 39.8801 146.444 41.9225C145.291 43.9648 143.71 45.5624 141.7 46.7153C139.724 47.8353 137.484 48.3953 134.981 48.3953ZM119.268 48V11.3371H126.976V26.8027L126.482 34.6591L126.63 42.5648V48H119.268ZM133.646 42.0707C134.931 42.0707 136.068 41.7742 137.056 41.1813C138.077 40.5884 138.884 39.7484 139.477 38.6613C140.103 37.5414 140.416 36.2237 140.416 34.7085C140.416 33.1603 140.103 31.8426 139.477 30.7556C138.884 29.6686 138.077 28.8286 137.056 28.2356C136.068 27.6427 134.931 27.3462 133.646 27.3462C132.362 27.3462 131.209 27.6427 130.188 28.2356C129.167 28.8286 128.359 29.6686 127.767 30.7556C127.174 31.8426 126.877 33.1603 126.877 34.7085C126.877 36.2237 127.174 37.5414 127.767 38.6613C128.359 39.7484 129.167 40.5884 130.188 41.1813C131.209 41.7742 132.362 42.0707 133.646 42.0707ZM166.032 48.3953C163.199 48.3953 160.679 47.8024 158.472 46.6165C156.298 45.4306 154.569 43.8165 153.284 41.7742C152.032 39.699 151.406 37.3437 151.406 34.7085C151.406 32.0403 152.032 29.685 153.284 27.6427C154.569 25.5674 156.298 23.9534 158.472 22.8004C160.679 21.6146 163.199 21.0216 166.032 21.0216C168.832 21.0216 171.335 21.6146 173.542 22.8004C175.749 23.9534 177.479 25.551 178.73 27.5933C179.982 29.6356 180.608 32.0073 180.608 34.7085C180.608 37.3437 179.982 39.699 178.73 41.7742C177.479 43.8165 175.749 45.4306 173.542 46.6165C171.335 47.8024 168.832 48.3953 166.032 48.3953ZM166.032 42.0707C167.317 42.0707 168.469 41.7742 169.491 41.1813C170.512 40.5884 171.319 39.7484 171.912 38.6613C172.505 37.5414 172.801 36.2237 172.801 34.7085C172.801 33.1603 172.505 31.8426 171.912 30.7556C171.319 29.6686 170.512 28.8286 169.491 28.2356C168.469 27.6427 167.317 27.3462 166.032 27.3462C164.747 27.3462 163.594 27.6427 162.573 28.2356C161.552 28.8286 160.728 29.6686 160.103 30.7556C159.51 31.8426 159.213 33.1603 159.213 34.7085C159.213 36.2237 159.51 37.5414 160.103 38.6613C160.728 39.7484 161.552 40.5884 162.573 41.1813C163.594 41.7742 164.747 42.0707 166.032 42.0707ZM191.114 48L181.528 21.4169H188.792L196.747 44.2942H193.288L201.589 21.4169H208.111L216.165 44.2942H212.707L220.909 21.4169H227.728L218.092 48H210.631L203.566 28.3839H205.839L198.526 48H191.114Z" fill="#090000"/>
</g>
<rect x="11" y="19" width="16" height="14" fill="black"/>
<path d="M11 20.25H14.75V30.75H11C10.0335 30.75 9.25 29.9665 9.25 29V22C9.25 21.0335 10.0335 20.25 11 20.25Z" fill="#F96391" stroke="white" stroke-width="0.5"/>
<path d="M22.25 20.25H26C26.9665 20.25 27.75 21.0335 27.75 22V29C27.75 29.9665 26.9665 30.75 26 30.75H22.25V20.25Z" fill="#00A699" stroke="white" stroke-width="0.5"/>
<rect x="16.25" y="20.25" width="4.5" height="10.5" fill="#FFE76B" stroke="white" stroke-width="0.5"/>
<defs>
<filter id="filter0_d_10964_8537" x="1.20004" y="11.3372" width="229.429" height="42.8603" filterUnits="userSpaceOnUse" color-interpolation-filters="sRGB">
<feFlood flood-opacity="0" result="BackgroundImageFix"/>
<feColorMatrix in="SourceAlpha" type="matrix" values="0 0 0 0 0 0 0 0 0 0 0 0 0 0 0 0 0 0 127 0" result="hardAlpha"/>
<feOffset dy="2.9011"/>
<feGaussianBlur stdDeviation="1.45055"/>
<feComposite in2="hardAlpha" operator="out"/>
<feColorMatrix type="matrix" values="0 0 0 0 0 0 0 0 0 0 0 0 0 0 0 0 0 0 0.25 0"/>
<feBlend mode="normal" in2="BackgroundImageFix" result="effect1_dropShadow_10964_8537"/>
<feBlend mode="normal" in="SourceGraphic" in2="effect1_dropShadow_10964_8537" result="shape"/>
</filter>
</defs>
</svg>
