<svg width="234" height="60" viewBox="0 0 234 60" fill="none" xmlns="http://www.w3.org/2000/svg">
<g filter="url(#filter0_d_11065_8533)">
<mask id="path-1-outside-1_11065_8533" maskUnits="userSpaceOnUse" x="11" y="9" width="212" height="37" fill="black">
<rect fill="white" x="11" y="9" width="212" height="37"/>
<path d="M26.5502 12.5C29.3402 12.5 31.7552 12.965 33.7952 13.895C35.8652 14.825 37.4552 16.145 38.5652 17.855C39.6752 19.565 40.2302 21.59 40.2302 23.93C40.2302 26.24 39.6752 28.265 38.5652 30.005C37.4552 31.715 35.8652 33.035 33.7952 33.965C31.7552 34.865 29.3402 35.315 26.5502 35.315H20.2052V44H12.9152V12.5H26.5502ZM26.1452 29.375C28.3352 29.375 30.0002 28.91 31.1402 27.98C32.2802 27.02 32.8502 25.67 32.8502 23.93C32.8502 22.16 32.2802 20.81 31.1402 19.88C30.0002 18.92 28.3352 18.44 26.1452 18.44H20.2052V29.375H26.1452ZM54.0642 44.36C51.3342 44.36 49.2042 43.64 47.6742 42.2C46.1442 40.73 45.3792 38.66 45.3792 35.99V10.61H52.3992V35.585C52.3992 36.605 52.6542 37.4 53.1642 37.97C53.7042 38.51 54.4542 38.78 55.4142 38.78C55.7742 38.78 56.1342 38.735 56.4942 38.645C56.8842 38.555 57.1842 38.45 57.3942 38.33L57.7092 43.775C56.5392 44.165 55.3242 44.36 54.0642 44.36ZM85.2861 19.79V44H78.5811V41.21C76.8411 43.31 74.3211 44.36 71.0211 44.36C68.7411 44.36 66.6711 43.85 64.8111 42.83C62.9811 41.81 61.5411 40.355 60.4911 38.465C59.4411 36.575 58.9161 34.385 58.9161 31.895C58.9161 29.405 59.4411 27.215 60.4911 25.325C61.5411 23.435 62.9811 21.98 64.8111 20.96C66.6711 19.94 68.7411 19.43 71.0211 19.43C74.1111 19.43 76.5261 20.405 78.2661 22.355V19.79H85.2861ZM72.2361 38.6C74.0061 38.6 75.4761 38 76.6461 36.8C77.8161 35.57 78.4011 33.935 78.4011 31.895C78.4011 29.855 77.8161 28.235 76.6461 27.035C75.4761 25.805 74.0061 25.19 72.2361 25.19C70.4361 25.19 68.9511 25.805 67.7811 27.035C66.6111 28.235 66.0261 29.855 66.0261 31.895C66.0261 33.935 66.6111 35.57 67.7811 36.8C68.9511 38 70.4361 38.6 72.2361 38.6ZM106.5 19.43C109.5 19.43 111.915 20.33 113.745 22.13C115.605 23.93 116.535 26.6 116.535 30.14V44H109.515V31.22C109.515 29.3 109.095 27.875 108.255 26.945C107.415 25.985 106.2 25.505 104.61 25.505C102.84 25.505 101.43 26.06 100.38 27.17C99.3304 28.25 98.8054 29.87 98.8054 32.03V44H91.7854V19.79H98.4904V22.625C99.4204 21.605 100.575 20.825 101.955 20.285C103.335 19.715 104.85 19.43 106.5 19.43ZM137.209 19.43C139.459 19.43 141.499 19.955 143.329 21.005C145.189 22.025 146.644 23.48 147.694 25.37C148.744 27.23 149.269 29.405 149.269 31.895C149.269 34.385 148.744 36.575 147.694 38.465C146.644 40.325 145.189 41.78 143.329 42.83C141.499 43.85 139.459 44.36 137.209 44.36C133.879 44.36 131.344 43.31 129.604 41.21V44H122.899V10.61H129.919V22.355C131.689 20.405 134.119 19.43 137.209 19.43ZM135.994 38.6C137.794 38.6 139.264 38 140.404 36.8C141.574 35.57 142.159 33.935 142.159 31.895C142.159 29.855 141.574 28.235 140.404 27.035C139.264 25.805 137.794 25.19 135.994 25.19C134.194 25.19 132.709 25.805 131.539 27.035C130.399 28.235 129.829 29.855 129.829 31.895C129.829 33.935 130.399 35.57 131.539 36.8C132.709 38 134.194 38.6 135.994 38.6ZM165.488 44.36C162.938 44.36 160.643 43.835 158.603 42.785C156.593 41.705 155.018 40.22 153.878 38.33C152.738 36.44 152.168 34.295 152.168 31.895C152.168 29.495 152.738 27.35 153.878 25.46C155.018 23.57 156.593 22.1 158.603 21.05C160.643 19.97 162.938 19.43 165.488 19.43C168.038 19.43 170.318 19.97 172.328 21.05C174.338 22.1 175.913 23.57 177.053 25.46C178.193 27.35 178.763 29.495 178.763 31.895C178.763 34.295 178.193 36.44 177.053 38.33C175.913 40.22 174.338 41.705 172.328 42.785C170.318 43.835 168.038 44.36 165.488 44.36ZM165.488 38.6C167.288 38.6 168.758 38 169.898 36.8C171.068 35.57 171.653 33.935 171.653 31.895C171.653 29.855 171.068 28.235 169.898 27.035C168.758 25.805 167.288 25.19 165.488 25.19C163.688 25.19 162.203 25.805 161.033 27.035C159.863 28.235 159.278 29.855 159.278 31.895C159.278 33.935 159.863 35.57 161.033 36.8C162.203 38 163.688 38.6 165.488 38.6ZM221.75 19.79V33.155C221.75 36.725 220.775 39.485 218.825 41.435C216.875 43.385 214.1 44.36 210.5 44.36C208.76 44.36 207.215 44.09 205.865 43.55C204.545 43.01 203.435 42.14 202.535 40.94C201.635 42.14 200.525 43.01 199.205 43.55C197.885 44.09 196.325 44.36 194.525 44.36C190.895 44.36 188.12 43.385 186.2 41.435C184.28 39.485 183.32 36.725 183.32 33.155V19.79H190.34V32.615C190.34 34.625 190.685 36.11 191.375 37.07C192.065 38 193.145 38.465 194.615 38.465C196.115 38.465 197.225 37.985 197.945 37.025C198.665 36.065 199.025 34.595 199.025 32.615V19.79H206.045V32.615C206.045 34.595 206.405 36.065 207.125 37.025C207.845 37.985 208.955 38.465 210.455 38.465C211.925 38.465 213.005 38 213.695 37.07C214.385 36.11 214.73 34.625 214.73 32.615V19.79H221.75Z"/>
</mask>
<path d="M26.5502 12.5C29.3402 12.5 31.7552 12.965 33.7952 13.895C35.8652 14.825 37.4552 16.145 38.5652 17.855C39.6752 19.565 40.2302 21.59 40.2302 23.93C40.2302 26.24 39.6752 28.265 38.5652 30.005C37.4552 31.715 35.8652 33.035 33.7952 33.965C31.7552 34.865 29.3402 35.315 26.5502 35.315H20.2052V44H12.9152V12.5H26.5502ZM26.1452 29.375C28.3352 29.375 30.0002 28.91 31.1402 27.98C32.2802 27.02 32.8502 25.67 32.8502 23.93C32.8502 22.16 32.2802 20.81 31.1402 19.88C30.0002 18.92 28.3352 18.44 26.1452 18.44H20.2052V29.375H26.1452ZM54.0642 44.36C51.3342 44.36 49.2042 43.64 47.6742 42.2C46.1442 40.73 45.3792 38.66 45.3792 35.99V10.61H52.3992V35.585C52.3992 36.605 52.6542 37.4 53.1642 37.97C53.7042 38.51 54.4542 38.78 55.4142 38.78C55.7742 38.78 56.1342 38.735 56.4942 38.645C56.8842 38.555 57.1842 38.45 57.3942 38.33L57.7092 43.775C56.5392 44.165 55.3242 44.36 54.0642 44.36ZM85.2861 19.79V44H78.5811V41.21C76.8411 43.31 74.3211 44.36 71.0211 44.36C68.7411 44.36 66.6711 43.85 64.8111 42.83C62.9811 41.81 61.5411 40.355 60.4911 38.465C59.4411 36.575 58.9161 34.385 58.9161 31.895C58.9161 29.405 59.4411 27.215 60.4911 25.325C61.5411 23.435 62.9811 21.98 64.8111 20.96C66.6711 19.94 68.7411 19.43 71.0211 19.43C74.1111 19.43 76.5261 20.405 78.2661 22.355V19.79H85.2861ZM72.2361 38.6C74.0061 38.6 75.4761 38 76.6461 36.8C77.8161 35.57 78.4011 33.935 78.4011 31.895C78.4011 29.855 77.8161 28.235 76.6461 27.035C75.4761 25.805 74.0061 25.19 72.2361 25.19C70.4361 25.19 68.9511 25.805 67.7811 27.035C66.6111 28.235 66.0261 29.855 66.0261 31.895C66.0261 33.935 66.6111 35.57 67.7811 36.8C68.9511 38 70.4361 38.6 72.2361 38.6ZM106.5 19.43C109.5 19.43 111.915 20.33 113.745 22.13C115.605 23.93 116.535 26.6 116.535 30.14V44H109.515V31.22C109.515 29.3 109.095 27.875 108.255 26.945C107.415 25.985 106.2 25.505 104.61 25.505C102.84 25.505 101.43 26.06 100.38 27.17C99.3304 28.25 98.8054 29.87 98.8054 32.03V44H91.7854V19.79H98.4904V22.625C99.4204 21.605 100.575 20.825 101.955 20.285C103.335 19.715 104.85 19.43 106.5 19.43ZM137.209 19.43C139.459 19.43 141.499 19.955 143.329 21.005C145.189 22.025 146.644 23.48 147.694 25.37C148.744 27.23 149.269 29.405 149.269 31.895C149.269 34.385 148.744 36.575 147.694 38.465C146.644 40.325 145.189 41.78 143.329 42.83C141.499 43.85 139.459 44.36 137.209 44.36C133.879 44.36 131.344 43.31 129.604 41.21V44H122.899V10.61H129.919V22.355C131.689 20.405 134.119 19.43 137.209 19.43ZM135.994 38.6C137.794 38.6 139.264 38 140.404 36.8C141.574 35.57 142.159 33.935 142.159 31.895C142.159 29.855 141.574 28.235 140.404 27.035C139.264 25.805 137.794 25.19 135.994 25.19C134.194 25.19 132.709 25.805 131.539 27.035C130.399 28.235 129.829 29.855 129.829 31.895C129.829 33.935 130.399 35.57 131.539 36.8C132.709 38 134.194 38.6 135.994 38.6ZM165.488 44.36C162.938 44.36 160.643 43.835 158.603 42.785C156.593 41.705 155.018 40.22 153.878 38.33C152.738 36.44 152.168 34.295 152.168 31.895C152.168 29.495 152.738 27.35 153.878 25.46C155.018 23.57 156.593 22.1 158.603 21.05C160.643 19.97 162.938 19.43 165.488 19.43C168.038 19.43 170.318 19.97 172.328 21.05C174.338 22.1 175.913 23.57 177.053 25.46C178.193 27.35 178.763 29.495 178.763 31.895C178.763 34.295 178.193 36.44 177.053 38.33C175.913 40.22 174.338 41.705 172.328 42.785C170.318 43.835 168.038 44.36 165.488 44.36ZM165.488 38.6C167.288 38.6 168.758 38 169.898 36.8C171.068 35.57 171.653 33.935 171.653 31.895C171.653 29.855 171.068 28.235 169.898 27.035C168.758 25.805 167.288 25.19 165.488 25.19C163.688 25.19 162.203 25.805 161.033 27.035C159.863 28.235 159.278 29.855 159.278 31.895C159.278 33.935 159.863 35.57 161.033 36.8C162.203 38 163.688 38.6 165.488 38.6ZM221.75 19.79V33.155C221.75 36.725 220.775 39.485 218.825 41.435C216.875 43.385 214.1 44.36 210.5 44.36C208.76 44.36 207.215 44.09 205.865 43.55C204.545 43.01 203.435 42.14 202.535 40.94C201.635 42.14 200.525 43.01 199.205 43.55C197.885 44.09 196.325 44.36 194.525 44.36C190.895 44.36 188.12 43.385 186.2 41.435C184.28 39.485 183.32 36.725 183.32 33.155V19.79H190.34V32.615C190.34 34.625 190.685 36.11 191.375 37.07C192.065 38 193.145 38.465 194.615 38.465C196.115 38.465 197.225 37.985 197.945 37.025C198.665 36.065 199.025 34.595 199.025 32.615V19.79H206.045V32.615C206.045 34.595 206.405 36.065 207.125 37.025C207.845 37.985 208.955 38.465 210.455 38.465C211.925 38.465 213.005 38 213.695 37.07C214.385 36.11 214.73 34.625 214.73 32.615V19.79H221.75Z" fill="white"/>
<path d="M33.7952 13.895L33.3804 14.8049L33.3854 14.8072L33.7952 13.895ZM38.5652 30.005L39.404 30.5495L39.4082 30.5428L38.5652 30.005ZM33.7952 33.965L34.1988 34.8799L34.205 34.8772L33.7952 33.965ZM20.2052 35.315V34.315H19.2052V35.315H20.2052ZM20.2052 44V45H21.2052V44H20.2052ZM12.9152 44H11.9152V45H12.9152V44ZM12.9152 12.5V11.5H11.9152V12.5H12.9152ZM31.1402 27.98L31.7723 28.7549L31.7783 28.7499L31.7843 28.7449L31.1402 27.98ZM31.1402 19.88L30.496 20.6449L30.502 20.6499L30.5081 20.6549L31.1402 19.88ZM20.2052 18.44V17.44H19.2052V18.44H20.2052ZM20.2052 29.375H19.2052V30.375H20.2052V29.375ZM26.5502 13.5C29.2311 13.5 31.4984 13.9469 33.3804 14.8049L34.21 12.9851C32.012 11.9831 29.4493 11.5 26.5502 11.5V13.5ZM33.3854 14.8072C35.3005 15.6676 36.7327 16.8686 37.7264 18.3995L39.404 17.3105C38.1777 15.4214 36.4298 13.9824 34.205 12.9828L33.3854 14.8072ZM37.7264 18.3995C38.7163 19.9244 39.2302 21.754 39.2302 23.93H41.2302C41.2302 21.426 40.6341 19.2056 39.404 17.3105L37.7264 18.3995ZM39.2302 23.93C39.2302 26.0729 38.7177 27.9065 37.7221 29.4672L39.4082 30.5428C40.6326 28.6235 41.2302 26.4071 41.2302 23.93H39.2302ZM37.7264 29.4605C36.7327 30.9914 35.3005 32.1924 33.3854 33.0528L34.205 34.8772C36.4298 33.8776 38.1777 32.4386 39.404 30.5495L37.7264 29.4605ZM33.3915 33.0501C31.5064 33.8818 29.235 34.315 26.5502 34.315V36.315C29.4453 36.315 32.004 35.8482 34.1988 34.8799L33.3915 33.0501ZM26.5502 34.315H20.2052V36.315H26.5502V34.315ZM19.2052 35.315V44H21.2052V35.315H19.2052ZM20.2052 43H12.9152V45H20.2052V43ZM13.9152 44V12.5H11.9152V44H13.9152ZM12.9152 13.5H26.5502V11.5H12.9152V13.5ZM26.1452 30.375C28.4571 30.375 30.3848 29.8868 31.7723 28.7549L30.5081 27.2051C29.6155 27.9332 28.2132 28.375 26.1452 28.375V30.375ZM31.7843 28.7449C33.1888 27.5622 33.8502 25.9101 33.8502 23.93H31.8502C31.8502 25.4299 31.3716 26.4778 30.496 27.2151L31.7843 28.7449ZM33.8502 23.93C33.8502 21.9271 33.1928 20.264 31.7723 19.1051L30.5081 20.6549C31.3676 21.356 31.8502 22.3929 31.8502 23.93H33.8502ZM31.7843 19.1151C30.396 17.946 28.4633 17.44 26.1452 17.44V19.44C28.207 19.44 29.6043 19.894 30.496 20.6449L31.7843 19.1151ZM26.1452 17.44H20.2052V19.44H26.1452V17.44ZM19.2052 18.44V29.375H21.2052V18.44H19.2052ZM20.2052 30.375H26.1452V28.375H20.2052V30.375ZM47.6742 42.2L46.9813 42.9211L46.9888 42.9282L47.6742 42.2ZM45.3792 10.61V9.61H44.3792V10.61H45.3792ZM52.3992 10.61H53.3992V9.61H52.3992V10.61ZM53.1642 37.97L52.4189 38.6368L52.4374 38.6575L52.4571 38.6771L53.1642 37.97ZM56.4942 38.645L56.2693 37.6706L56.2604 37.6727L56.2516 37.6749L56.4942 38.645ZM57.3942 38.33L58.3925 38.2722L58.2993 36.661L56.898 37.4618L57.3942 38.33ZM57.7092 43.775L58.0254 44.7237L58.7517 44.4816L58.7075 43.7172L57.7092 43.775ZM54.0642 43.36C51.5101 43.36 49.6537 42.6898 48.3595 41.4718L46.9888 42.9282C48.7546 44.5902 51.1582 45.36 54.0642 45.36V43.36ZM48.367 41.4789C47.0812 40.2435 46.3792 38.4624 46.3792 35.99H44.3792C44.3792 38.8576 45.2071 41.2165 46.9813 42.9211L48.367 41.4789ZM46.3792 35.99V10.61H44.3792V35.99H46.3792ZM45.3792 11.61H52.3992V9.61H45.3792V11.61ZM51.3992 10.61V35.585H53.3992V10.61H51.3992ZM51.3992 35.585C51.3992 36.7676 51.6967 37.8296 52.4189 38.6368L53.9094 37.3032C53.6117 36.9704 53.3992 36.4424 53.3992 35.585H51.3992ZM52.4571 38.6771C53.2299 39.45 54.2608 39.78 55.4142 39.78V37.78C54.6475 37.78 54.1784 37.57 53.8713 37.2629L52.4571 38.6771ZM55.4142 39.78C55.8584 39.78 56.2998 39.7244 56.7367 39.6151L56.2516 37.6749C55.9685 37.7456 55.6899 37.78 55.4142 37.78V39.78ZM56.719 39.6194C57.1506 39.5198 57.5583 39.388 57.8903 39.1982L56.898 37.4618C56.81 37.512 56.6177 37.5902 56.2693 37.6706L56.719 39.6194ZM56.3958 38.3878L56.7108 43.8328L58.7075 43.7172L58.3925 38.2722L56.3958 38.3878ZM57.3929 42.8263C56.3271 43.1816 55.219 43.36 54.0642 43.36V45.36C55.4293 45.36 56.7512 45.1484 58.0254 44.7237L57.3929 42.8263ZM85.2861 19.79H86.2861V18.79H85.2861V19.79ZM85.2861 44V45H86.2861V44H85.2861ZM78.5811 44H77.5811V45H78.5811V44ZM78.5811 41.21H79.5811V38.4357L77.8111 40.572L78.5811 41.21ZM64.8111 42.83L64.3242 43.7035L64.3302 43.7068L64.8111 42.83ZM60.4911 38.465L59.6169 38.9506L59.6169 38.9506L60.4911 38.465ZM60.4911 25.325L59.6169 24.8394L59.6169 24.8394L60.4911 25.325ZM64.8111 20.96L64.3302 20.0832L64.3242 20.0865L64.8111 20.96ZM78.2661 22.355L77.5199 23.0208L79.2661 24.9777V22.355H78.2661ZM78.2661 19.79V18.79H77.2661V19.79H78.2661ZM76.6461 36.8L77.3621 37.4982L77.3706 37.4892L76.6461 36.8ZM76.6461 27.035L75.9215 27.7243L75.9301 27.7331L76.6461 27.035ZM67.7811 27.035L68.4971 27.7332L68.5056 27.7242L67.7811 27.035ZM67.7811 36.8L67.0565 37.4893L67.0651 37.4981L67.7811 36.8ZM84.2861 19.79V44H86.2861V19.79H84.2861ZM85.2861 43H78.5811V45H85.2861V43ZM79.5811 44V41.21H77.5811V44H79.5811ZM77.8111 40.572C76.301 42.3945 74.0922 43.36 71.0211 43.36V45.36C74.55 45.36 77.3812 44.2255 79.3511 41.848L77.8111 40.572ZM71.0211 43.36C68.8962 43.36 66.9936 42.8864 65.2919 41.9532L64.3302 43.7068C66.3486 44.8136 68.5859 45.36 71.0211 45.36V43.36ZM65.2979 41.9565C63.636 41.0302 62.3278 39.712 61.3652 37.9794L59.6169 38.9506C60.7543 40.998 62.3261 42.5898 64.3242 43.7035L65.2979 41.9565ZM61.3652 37.9794C60.4095 36.2591 59.9161 34.2411 59.9161 31.895H57.9161C57.9161 34.5289 58.4726 36.8909 59.6169 38.9506L61.3652 37.9794ZM59.9161 31.895C59.9161 29.5489 60.4095 27.5309 61.3652 25.8106L59.6169 24.8394C58.4726 26.8991 57.9161 29.2611 57.9161 31.895H59.9161ZM61.3652 25.8106C62.3278 24.078 63.636 22.7598 65.2979 21.8335L64.3242 20.0865C62.3261 21.2002 60.7543 22.792 59.6169 24.8394L61.3652 25.8106ZM65.2919 21.8368C66.9936 20.9036 68.8962 20.43 71.0211 20.43V18.43C68.5859 18.43 66.3486 18.9764 64.3302 20.0832L65.2919 21.8368ZM71.0211 20.43C73.883 20.43 76.0045 21.3225 77.5199 23.0208L79.0122 21.6892C77.0476 19.4875 74.3391 18.43 71.0211 18.43V20.43ZM79.2661 22.355V19.79H77.2661V22.355H79.2661ZM78.2661 20.79H85.2861V18.79H78.2661V20.79ZM72.2361 39.6C74.2588 39.6 75.9924 38.9029 77.3621 37.4981L75.9301 36.1019C74.9597 37.0971 73.7533 37.6 72.2361 37.6V39.6ZM77.3706 37.4892C78.752 36.037 79.4011 34.1366 79.4011 31.895H77.4011C77.4011 33.7334 76.8801 35.103 75.9215 36.1108L77.3706 37.4892ZM79.4011 31.895C79.4011 29.6543 78.7522 27.7627 77.3621 26.3369L75.9301 27.7331C76.8799 28.7073 77.4011 30.0557 77.4011 31.895H79.4011ZM77.3706 26.3458C76.003 24.908 74.2668 24.19 72.2361 24.19V26.19C73.7453 26.19 74.9491 26.702 75.9215 27.7242L77.3706 26.3458ZM72.2361 24.19C70.1807 24.19 68.4277 24.9043 67.0565 26.3458L68.5056 27.7242C69.4745 26.7057 70.6915 26.19 72.2361 26.19V24.19ZM67.0651 26.3369C65.6749 27.7627 65.0261 29.6543 65.0261 31.895H67.0261C67.0261 30.0557 67.5472 28.7073 68.4971 27.7331L67.0651 26.3369ZM65.0261 31.895C65.0261 34.1366 65.6751 36.037 67.0565 37.4892L68.5056 36.1108C67.547 35.103 67.0261 33.7334 67.0261 31.895H65.0261ZM67.0651 37.4981C68.4382 38.9064 70.1886 39.6 72.2361 39.6V37.6C70.6835 37.6 69.4639 37.0936 68.4971 36.1019L67.0651 37.4981ZM113.745 22.13L113.044 22.8429L113.05 22.8486L113.745 22.13ZM116.535 44V45H117.535V44H116.535ZM109.515 44H108.515V45H109.515V44ZM108.255 26.945L107.503 27.6035L107.508 27.6094L107.513 27.6153L108.255 26.945ZM100.38 27.17L101.097 27.8671L101.107 27.8572L100.38 27.17ZM98.8054 44V45H99.8054V44H98.8054ZM91.7854 44H90.7854V45H91.7854V44ZM91.7854 19.79V18.79H90.7854V19.79H91.7854ZM98.4904 19.79H99.4904V18.79H98.4904V19.79ZM98.4904 22.625H97.4904V25.206L99.2294 23.2988L98.4904 22.625ZM101.955 20.285L102.32 21.2162L102.329 21.2128L102.337 21.2093L101.955 20.285ZM106.5 20.43C109.286 20.43 111.433 21.2578 113.044 22.8429L114.447 21.4171C112.398 19.4022 109.715 18.43 106.5 18.43V20.43ZM113.05 22.8486C114.652 24.3992 115.535 26.7684 115.535 30.14H117.535C117.535 26.4316 116.559 23.4608 114.441 21.4114L113.05 22.8486ZM115.535 30.14V44H117.535V30.14H115.535ZM116.535 43H109.515V45H116.535V43ZM110.515 44V31.22H108.515V44H110.515ZM110.515 31.22C110.515 29.1796 110.073 27.465 108.998 26.2747L107.513 27.6153C108.118 28.285 108.515 29.4204 108.515 31.22H110.515ZM109.008 26.2865C107.933 25.0577 106.412 24.505 104.61 24.505V26.505C105.989 26.505 106.898 26.9123 107.503 27.6035L109.008 26.2865ZM104.61 24.505C102.613 24.505 100.923 25.141 99.6539 26.4828L101.107 27.8572C101.938 26.979 103.068 26.505 104.61 26.505V24.505ZM99.6634 26.4729C98.366 27.8074 97.8054 29.7228 97.8054 32.03H99.8054C99.8054 30.0172 100.295 28.6926 101.097 27.8671L99.6634 26.4729ZM97.8054 32.03V44H99.8054V32.03H97.8054ZM98.8054 43H91.7854V45H98.8054V43ZM92.7854 44V19.79H90.7854V44H92.7854ZM91.7854 20.79H98.4904V18.79H91.7854V20.79ZM97.4904 19.79V22.625H99.4904V19.79H97.4904ZM99.2294 23.2988C100.048 22.4004 101.072 21.7045 102.32 21.2162L101.591 19.3538C100.079 19.9455 98.7924 20.8096 97.7515 21.9512L99.2294 23.2988ZM102.337 21.2093C103.584 20.6943 104.968 20.43 106.5 20.43V18.43C104.733 18.43 103.087 18.7357 101.574 19.3607L102.337 21.2093ZM143.329 21.005L142.831 21.8724L142.839 21.8772L142.848 21.8818L143.329 21.005ZM147.694 25.37L146.82 25.8557L146.823 25.8616L147.694 25.37ZM147.694 38.465L148.565 38.9566L148.568 38.9506L147.694 38.465ZM143.329 42.83L143.816 43.7035L143.82 43.7008L143.329 42.83ZM129.604 41.21L130.374 40.572L128.604 38.4357V41.21H129.604ZM129.604 44V45H130.604V44H129.604ZM122.899 44H121.899V45H122.899V44ZM122.899 10.61V9.61H121.899V10.61H122.899ZM129.919 10.61H130.919V9.61H129.919V10.61ZM129.919 22.355H128.919V24.9446L130.659 23.0271L129.919 22.355ZM140.404 36.8L139.679 36.1108L139.679 36.1112L140.404 36.8ZM140.404 27.035L139.67 27.7148L139.679 27.724L139.688 27.7331L140.404 27.035ZM131.539 27.035L130.814 26.3458L130.814 26.3463L131.539 27.035ZM131.539 36.8L130.805 37.4798L130.814 37.489L130.823 37.4981L131.539 36.8ZM137.209 20.43C139.296 20.43 141.163 20.9151 142.831 21.8724L143.826 20.1376C141.835 18.9949 139.621 18.43 137.209 18.43V20.43ZM142.848 21.8818C144.539 22.8093 145.859 24.1272 146.82 25.8556L148.568 24.8844C147.428 22.8328 145.838 21.2407 143.81 20.1282L142.848 21.8818ZM146.823 25.8616C147.775 27.5484 148.269 29.5485 148.269 31.895H150.269C150.269 29.2615 149.712 26.9116 148.565 24.8784L146.823 25.8616ZM148.269 31.895C148.269 34.2411 147.775 36.2591 146.82 37.9794L148.568 38.9506C149.712 36.8909 150.269 34.5289 150.269 31.895H148.269ZM146.823 37.9734C145.862 39.6748 144.539 40.9987 142.837 41.9592L143.82 43.7008C145.839 42.5613 147.425 40.9752 148.565 38.9566L146.823 37.9734ZM142.842 41.9565C141.172 42.8874 139.301 43.36 137.209 43.36V45.36C139.616 45.36 141.826 44.8126 143.816 43.7035L142.842 41.9565ZM137.209 43.36C134.104 43.36 131.882 42.3923 130.374 40.572L128.834 41.848C130.805 44.2277 133.653 45.36 137.209 45.36V43.36ZM128.604 41.21V44H130.604V41.21H128.604ZM129.604 43H122.899V45H129.604V43ZM123.899 44V10.61H121.899V44H123.899ZM122.899 11.61H129.919V9.61H122.899V11.61ZM128.919 10.61V22.355H130.919V10.61H128.919ZM130.659 23.0271C132.206 21.3225 134.347 20.43 137.209 20.43V18.43C133.89 18.43 131.171 19.4875 129.178 21.6829L130.659 23.0271ZM135.994 39.6C138.041 39.6 139.782 38.906 141.129 37.4887L139.679 36.1112C138.745 37.094 137.546 37.6 135.994 37.6V39.6ZM141.128 37.4892C142.51 36.037 143.159 34.1366 143.159 31.895H141.159C141.159 33.7334 140.638 35.103 139.679 36.1108L141.128 37.4892ZM143.159 31.895C143.159 29.6543 142.51 27.7627 141.12 26.3369L139.688 27.7331C140.638 28.7073 141.159 30.0557 141.159 31.895H143.159ZM141.137 26.3552C139.793 24.9049 138.049 24.19 135.994 24.19V26.19C137.538 26.19 138.735 26.7051 139.67 27.7148L141.137 26.3552ZM135.994 24.19C133.938 24.19 132.185 24.9043 130.814 26.3458L132.263 27.7242C133.232 26.7057 134.449 26.19 135.994 26.19V24.19ZM130.814 26.3463C129.458 27.7731 128.829 29.6614 128.829 31.895H130.829C130.829 30.0486 131.339 28.6969 132.264 27.7237L130.814 26.3463ZM128.829 31.895C128.829 34.1296 129.458 36.0266 130.805 37.4798L132.272 36.1202C131.339 35.1134 130.829 33.7404 130.829 31.895H128.829ZM130.823 37.4981C132.196 38.9064 133.946 39.6 135.994 39.6V37.6C134.441 37.6 133.222 37.0936 132.255 36.1019L130.823 37.4981ZM158.603 42.785L158.13 43.6659L158.138 43.6701L158.145 43.6741L158.603 42.785ZM153.878 38.33L153.022 38.8465L153.022 38.8465L153.878 38.33ZM153.878 25.46L153.022 24.9435L153.022 24.9435L153.878 25.46ZM158.603 21.05L159.066 21.9364L159.071 21.9338L158.603 21.05ZM172.328 21.05L171.855 21.931L171.865 21.9363L172.328 21.05ZM177.053 25.46L177.909 24.9435L177.909 24.9435L177.053 25.46ZM177.053 38.33L177.909 38.8465L177.909 38.8465L177.053 38.33ZM172.328 42.785L172.791 43.6714L172.801 43.6659L172.328 42.785ZM169.898 36.8L169.173 36.1108L169.173 36.1112L169.898 36.8ZM169.898 27.035L169.165 27.7148L169.173 27.724L169.182 27.7331L169.898 27.035ZM161.033 27.035L161.749 27.7332L161.758 27.7242L161.033 27.035ZM161.033 36.8L160.308 37.4893L160.317 37.4981L161.033 36.8ZM165.488 43.36C163.079 43.36 160.944 42.8652 159.061 41.8959L158.145 43.6741C160.342 44.8048 162.797 45.36 165.488 45.36V43.36ZM159.076 41.9041C157.219 40.906 155.778 39.5445 154.734 37.8135L153.022 38.8465C154.258 40.8955 155.967 42.504 158.13 43.6659L159.076 41.9041ZM154.734 37.8135C153.696 36.0929 153.168 34.1294 153.168 31.895H151.168C151.168 34.4606 151.78 36.7871 153.022 38.8465L154.734 37.8135ZM153.168 31.895C153.168 29.6606 153.696 27.6971 154.734 25.9765L153.022 24.9435C151.78 27.0029 151.168 29.3294 151.168 31.895H153.168ZM154.734 25.9765C155.777 24.248 157.214 22.9039 159.066 21.9363L158.14 20.1636C155.972 21.2961 154.259 22.892 153.022 24.9435L154.734 25.9765ZM159.071 21.9338C160.952 20.9378 163.084 20.43 165.488 20.43V18.43C162.792 18.43 160.334 19.0021 158.135 20.1662L159.071 21.9338ZM165.488 20.43C167.893 20.43 170.007 20.9379 171.855 21.9309L172.801 20.1691C170.629 19.0021 168.183 18.43 165.488 18.43V20.43ZM171.865 21.9363C173.717 22.9039 175.154 24.248 176.197 25.9765L177.909 24.9435C176.672 22.892 174.959 21.2961 172.791 20.1636L171.865 21.9363ZM176.197 25.9765C177.235 27.6971 177.763 29.6606 177.763 31.895H179.763C179.763 29.3294 179.151 27.0029 177.909 24.9435L176.197 25.9765ZM177.763 31.895C177.763 34.1294 177.235 36.0929 176.197 37.8135L177.909 38.8465C179.151 36.7871 179.763 34.4606 179.763 31.895H177.763ZM176.197 37.8135C175.153 39.5445 173.712 40.906 171.855 41.9041L172.801 43.6659C174.964 42.504 176.673 40.8955 177.909 38.8465L176.197 37.8135ZM171.865 41.8987C170.015 42.8651 167.897 43.36 165.488 43.36V45.36C168.179 45.36 170.621 44.8049 172.791 43.6713L171.865 41.8987ZM165.488 39.6C167.535 39.6 169.277 38.906 170.623 37.4887L169.173 36.1112C168.239 37.094 167.041 37.6 165.488 37.6V39.6ZM170.623 37.4892C172.004 36.037 172.653 34.1366 172.653 31.895H170.653C170.653 33.7334 170.132 35.103 169.173 36.1108L170.623 37.4892ZM172.653 31.895C172.653 29.6543 172.004 27.7627 170.614 26.3369L169.182 27.7331C170.132 28.7073 170.653 30.0557 170.653 31.895H172.653ZM170.631 26.3552C169.287 24.9049 167.544 24.19 165.488 24.19V26.19C167.032 26.19 168.229 26.7051 169.165 27.7148L170.631 26.3552ZM165.488 24.19C163.433 24.19 161.68 24.9043 160.308 26.3458L161.758 27.7242C162.726 26.7057 163.943 26.19 165.488 26.19V24.19ZM160.317 26.3369C158.927 27.7627 158.278 29.6543 158.278 31.895H160.278C160.278 30.0557 160.799 28.7073 161.749 27.7331L160.317 26.3369ZM158.278 31.895C158.278 34.1366 158.927 36.037 160.308 37.4892L161.758 36.1108C160.799 35.103 160.278 33.7334 160.278 31.895H158.278ZM160.317 37.4981C161.69 38.9064 163.441 39.6 165.488 39.6V37.6C163.935 37.6 162.716 37.0936 161.749 36.1019L160.317 37.4981ZM221.75 19.79H222.75V18.79H221.75V19.79ZM218.825 41.435L219.532 42.1421L218.825 41.435ZM205.865 43.55L205.487 44.4756L205.494 44.4785L205.865 43.55ZM202.535 40.94L203.335 40.34L202.535 39.2733L201.735 40.34L202.535 40.94ZM199.205 43.55L198.827 42.6245L198.827 42.6245L199.205 43.55ZM186.2 41.435L185.488 42.1366L185.488 42.1366L186.2 41.435ZM183.32 19.79V18.79H182.32V19.79H183.32ZM190.34 19.79H191.34V18.79H190.34V19.79ZM191.375 37.07L190.563 37.6536L190.568 37.6598L190.572 37.6658L191.375 37.07ZM197.945 37.025L198.745 37.625L198.745 37.625L197.945 37.025ZM199.025 19.79V18.79H198.025V19.79H199.025ZM206.045 19.79H207.045V18.79H206.045V19.79ZM207.125 37.025L207.925 36.425L207.925 36.425L207.125 37.025ZM213.695 37.07L214.498 37.6658L214.503 37.6598L214.507 37.6536L213.695 37.07ZM214.73 19.79V18.79H213.73V19.79H214.73ZM220.75 19.79V33.155H222.75V19.79H220.75ZM220.75 33.155C220.75 36.5413 219.83 39.0161 218.118 40.7279L219.532 42.1421C221.721 39.9539 222.75 36.9087 222.75 33.155H220.75ZM218.118 40.7279C216.408 42.4381 213.919 43.36 210.5 43.36V45.36C214.281 45.36 217.343 44.3319 219.532 42.1421L218.118 40.7279ZM210.5 43.36C208.863 43.36 207.448 43.106 206.237 42.6215L205.494 44.4785C206.983 45.074 208.658 45.36 210.5 45.36V43.36ZM206.244 42.6245C205.1 42.1565 204.133 41.4032 203.335 40.34L201.735 41.54C202.738 42.8768 203.991 43.8635 205.487 44.4755L206.244 42.6245ZM201.735 40.34C200.938 41.4032 199.971 42.1565 198.827 42.6245L199.584 44.4755C201.08 43.8635 202.333 42.8768 203.335 41.54L201.735 40.34ZM198.827 42.6245C197.654 43.1042 196.228 43.36 194.525 43.36V45.36C196.422 45.36 198.117 45.0758 199.584 44.4755L198.827 42.6245ZM194.525 43.36C191.072 43.36 188.59 42.4363 186.913 40.7334L185.488 42.1366C187.651 44.3337 190.718 45.36 194.525 45.36V43.36ZM186.913 40.7334C185.228 39.0223 184.32 36.5455 184.32 33.155H182.32C182.32 36.9045 183.333 39.9477 185.488 42.1366L186.913 40.7334ZM184.32 33.155V19.79H182.32V33.155H184.32ZM183.32 20.79H190.34V18.79H183.32V20.79ZM189.34 19.79V32.615H191.34V19.79H189.34ZM189.34 32.615C189.34 34.7028 189.692 36.4412 190.563 37.6536L192.187 36.4864C191.679 35.7788 191.34 34.5472 191.34 32.615H189.34ZM190.572 37.6658C191.501 38.9173 192.923 39.465 194.615 39.465V37.465C193.368 37.465 192.63 37.0827 192.178 36.4742L190.572 37.6658ZM194.615 39.465C196.343 39.465 197.79 38.8993 198.745 37.625L197.145 36.425C196.661 37.0707 195.888 37.465 194.615 37.465V39.465ZM198.745 37.625C199.655 36.4115 200.025 34.6828 200.025 32.615H198.025C198.025 34.5072 197.675 35.7185 197.145 36.425L198.745 37.625ZM200.025 32.615V19.79H198.025V32.615H200.025ZM199.025 20.79H206.045V18.79H199.025V20.79ZM205.045 19.79V32.615H207.045V19.79H205.045ZM205.045 32.615C205.045 34.6828 205.415 36.4115 206.325 37.625L207.925 36.425C207.395 35.7185 207.045 34.5072 207.045 32.615H205.045ZM206.325 37.625C207.281 38.8993 208.728 39.465 210.455 39.465V37.465C209.183 37.465 208.41 37.0707 207.925 36.425L206.325 37.625ZM210.455 39.465C212.148 39.465 213.57 38.9173 214.498 37.6658L212.892 36.4742C212.441 37.0827 211.703 37.465 210.455 37.465V39.465ZM214.507 37.6536C215.379 36.4412 215.73 34.7028 215.73 32.615H213.73C213.73 34.5472 213.392 35.7788 212.883 36.4864L214.507 37.6536ZM215.73 32.615V19.79H213.73V32.615H215.73ZM214.73 20.79H221.75V18.79H214.73V20.79Z" fill="black" mask="url(#path-1-outside-1_11065_8533)"/>
</g>
<rect x="17.4" y="17" width="15.6416" height="14.7368" fill="white"/>
<path d="M18 18.25H21.6156V29.3289H18C17.0335 29.3289 16.25 28.5454 16.25 27.5789V20C16.25 19.0335 17.0335 18.25 18 18.25Z" fill="#F96391" stroke="black" stroke-width="0.5"/>
<path d="M28.9587 18.25H32.5743C33.5408 18.25 34.3243 19.0335 34.3243 20V27.5789C34.3243 28.5454 33.5408 29.3289 32.5743 29.3289H28.9587V18.25Z" fill="#00A699" stroke="black" stroke-width="0.5"/>
<rect x="23.0931" y="18.25" width="4.388" height="11.0789" fill="#FFE76B" stroke="black" stroke-width="0.5"/>
<defs>
<filter id="filter0_d_11065_8533" x="10.0141" y="10.6101" width="214.637" height="39.5522" filterUnits="userSpaceOnUse" color-interpolation-filters="sRGB">
<feFlood flood-opacity="0" result="BackgroundImageFix"/>
<feColorMatrix in="SourceAlpha" type="matrix" values="0 0 0 0 0 0 0 0 0 0 0 0 0 0 0 0 0 0 127 0" result="hardAlpha"/>
<feOffset dy="2.9011"/>
<feGaussianBlur stdDeviation="1.45055"/>
<feComposite in2="hardAlpha" operator="out"/>
<feColorMatrix type="matrix" values="0 0 0 0 0 0 0 0 0 0 0 0 0 0 0 0 0 0 0.25 0"/>
<feBlend mode="normal" in2="BackgroundImageFix" result="effect1_dropShadow_11065_8533"/>
<feBlend mode="normal" in="SourceGraphic" in2="effect1_dropShadow_11065_8533" result="shape"/>
</filter>
</defs>
</svg>
